<svg width="71" height="75" viewBox="0 0 71 75" fill="none" xmlns="http://www.w3.org/2000/svg">
<path d="M34.5858 55.4142C35.3668 56.1953 36.6332 56.1953 37.4142 55.4142L50.1421 42.6863C50.9232 41.9052 50.9232 40.6389 50.1421 39.8579C49.3611 39.0768 48.0948 39.0768 47.3137 39.8579L36 51.1716L24.6863 39.8579C23.9052 39.0768 22.6389 39.0768 21.8579 39.8579C21.0768 40.6389 21.0768 41.9052 21.8579 42.6863L34.5858 55.4142ZM34 33V54H38V33H34Z" fill="#444B54"/>
<rect x="34" y="12" width="4" height="11" rx="2" fill="#444B54"/>
<rect x="34" y="28" width="4" height="8" rx="2" fill="#444B54"/>
<rect x="21" y="59" width="30" height="4" rx="2" fill="#444B54"/>
</svg>
